<svg width="113" height="113" viewBox="0 0 113 113" fill="none" xmlns="http://www.w3.org/2000/svg">
<path d="M58.8571 43.6904C58.8571 43.6904 63.333 41.7041 67.3056 40.9537C71.2783 40.2121 74.5182 40.3357 74.5182 40.3357C74.5182 40.3357 77.9965 35.2419 78.4909 32.5052C78.9852 29.7685 79.047 27.226 79.1088 26.7846C79.2589 25.7252 86.3214 25.6634 87.8045 29.8921C89.2965 34.1207 87.4338 39.2146 86.189 41.0773C84.9442 42.94 83.5759 44.3084 83.5759 44.3084C83.5759 44.3084 89.6673 50.029 91.0356 56.3676C92.404 62.7062 92.0332 72.0287 92.0332 72.0287C92.0332 72.0287 91.6624 79.1088 88.1841 79.6121C84.7059 80.1064 80.4772 76.9371 79.8592 76.1956C79.2413 75.454 78.0406 73.3617 76.0102 74.0238C73.7148 74.7654 73.1234 77.4138 72.6555 79.7445C72.0728 82.6048 71.2077 89.8968 71.2077 89.8968C71.2077 89.8968 67.0673 91.5565 64.5777 91.1769C62.0882 90.8061 58.9807 87.8222 58.9807 87.8222C58.9807 87.8222 59.2279 84.0967 57.9831 83.3464C56.7384 82.596 55.4936 84.7147 55.4936 84.7147L50.5234 90.1793L43.6904 84.5823C43.6904 84.5823 43.196 82.0928 42.4456 80.8568C41.7041 79.6121 40.2121 76.8842 39.7089 75.0126C38.473 70.4131 38.8438 61.5938 38.8438 61.5938L31.2604 24.5599L33.1231 22.8207C33.1231 22.8207 34.8623 13.869 37.599 10.0199C40.3357 6.17088 42.5692 5.1733 44.0612 4.42291C45.5531 3.67252 50.1526 3.17815 50.1526 4.42291C50.1526 5.66768 48.0427 7.28322 46.7979 9.26955C45.5531 11.2559 44.1848 14.1162 43.4432 16.6057C42.7016 19.0953 41.8718 22.0703 41.8718 22.0703L44.5644 22.6883C44.5644 22.6883 46.0563 19.0864 47.4247 17.2237C48.7931 15.361 50.7176 12.8096 53.0835 11.0087C55.0875 9.48143 57.8684 7.90119 60.9759 7.90119C64.0834 7.90119 68.1884 8.77518 67.8088 11.0705C67.6058 12.3241 65.2575 11.7503 62.9004 13.304C60.0313 15.1932 56.9326 18.336 54.6373 23.6153C52.342 28.8945 51.5298 31.1986 51.5298 31.1986C51.5298 31.1986 57.5594 36.8574 58.1773 38.782C58.7953 40.7065 58.8571 43.6904 58.8571 43.6904Z" fill="#B68859"/>
<path d="M31.5164 61.9204C31.5164 61.9204 36.5749 65.1162 38.8084 65.231C42.2426 65.4164 47.3011 63.3859 50.4704 59.9076C53.6397 56.4294 56.2528 51.362 55.7938 45.1823C55.3965 39.859 53.5779 37.9079 53.5779 37.9079C53.5779 37.9079 56.7472 41.0154 61.3466 40.6447C65.9461 40.2739 69.6716 37.4754 71.1017 34.6769C72.2317 32.4698 73.2734 29.7684 72.5937 29.274C71.9139 28.7797 69.6274 29.274 69.6274 29.274L60.967 33.1849L46.1181 34.1825L30.5806 56.3676L31.5164 61.9204Z" fill="#6D4938"/>
<path d="M19.5808 26.6257C18.9628 27.0494 19.8898 29.8568 22.0703 31.5341C24.2509 33.2115 27.3495 33.7058 27.3495 33.7058L31.949 27.429C31.949 27.429 20.7637 25.8135 19.5808 26.6257Z" fill="#6D4938"/>
<path d="M58.9366 86.4891C58.9366 86.4891 61.4614 88.8109 65.0015 88.5019C68.5416 88.1929 71.7373 85.9153 71.7373 85.9153C71.7373 85.9153 71.0311 93.1632 70.9693 94.5315C70.9075 95.8999 70.7839 99.9167 70.7839 99.9167C70.7839 99.9167 66.3081 104.719 63.8891 104.287C61.4614 103.854 58.0891 99.6077 58.1509 98.7955C58.2127 97.9833 58.7335 94.3461 58.8571 92.4746C58.9807 90.6118 58.9366 86.4891 58.9366 86.4891Z" fill="#855B52"/>
<path d="M49.72 85.3856C53.5073 85.1207 56.3676 83.6641 56.3676 83.6641C56.3676 83.6641 56.5706 88.9698 56.4912 90.3734C56.3499 92.8277 56.1557 95.7586 55.9085 96.509C55.6613 97.2505 47.6012 98.3099 47.6012 98.3099C47.6012 98.3099 43.6904 94.8316 43.6904 94.6463C43.6904 94.4609 43.8934 91.8124 43.9817 89.8437C44.0435 88.4136 43.6109 83.9642 43.6109 83.9642C43.6109 83.9642 46.1181 85.6416 49.72 85.3856Z" fill="#855B52"/>
<path d="M79.4884 75.7189C79.4884 75.7189 82.1634 76.0103 83.9643 75.8249C85.7652 75.6395 89.4907 74.2711 90.4265 73.6531C91.3623 73.0352 92.042 72.0376 92.042 72.0376C92.042 72.0376 91.6712 79.7445 91.733 81.2365C91.7948 82.7285 91.7948 86.2685 91.7948 86.2685C91.7948 86.2685 88.8727 90.9916 85.7652 91.3006C82.6577 91.6096 79.4884 85.8713 79.4884 85.8713C79.4884 85.8713 79.9475 82.8432 79.9475 80.9805C79.9387 79.1178 79.4884 75.7189 79.4884 75.7189Z" fill="#855B52"/>
<path d="M63.7832 100.985C67.0673 101.276 70.8457 99.4929 70.8457 99.4929C70.8457 99.4929 71.1547 105.152 70.2895 106.785C69.548 108.197 67.2615 109.725 61.6556 108.815C58.0184 108.224 57.577 106.07 57.3652 104.71C57.1621 103.342 58.1067 98.6189 58.1067 98.6189C58.1067 98.6189 59.6252 100.614 63.7832 100.985Z" fill="#46484A"/>
<path d="M85.7034 87.7339C88.3166 87.6456 91.7949 86.2596 91.7949 86.2596C91.7949 86.2596 91.9802 91.786 89.8703 93.7193C87.4426 95.9352 81.6866 95.2554 80.0711 93.4457C78.4555 91.6447 79.4884 85.6946 79.4884 85.6946C79.4884 85.6946 82.1545 87.8575 85.7034 87.7339Z" fill="#46484A"/>
<path d="M49.411 95.9529C52.4656 96.0765 56.1645 94.9818 56.1645 94.9818C56.1645 94.9818 56.6236 101.656 53.5161 102.812C50.2144 104.048 45.8974 103.766 44.1936 101.612C42.9665 100.058 43.6374 94.3992 43.6374 94.3992C43.6374 94.3992 46.2417 95.8293 49.411 95.9529Z" fill="#46484A"/>
<path d="M35.0565 29.0269C35.6656 29.3888 36.9192 25.6104 44.9352 25.6722C53.7633 25.734 58.4157 30.0245 59.1043 30.0863C59.7841 30.148 64.5071 30.0862 65.9991 29.9627C67.491 29.8391 70.1041 28.6561 70.0423 29.5301C69.9805 30.4041 68.983 35.1889 64.5777 36.4248C60.1637 37.6696 52.7127 34.9947 51.2826 34.8711C49.8524 34.7475 48.6077 34.8711 48.7313 37.0428C48.8548 39.2145 32.514 49.0402 32.514 49.0402C32.514 49.0402 20.5607 43.4697 20.3753 42.7811C20.1899 42.1013 21.5318 40.2916 22.6353 38.5966C24.0302 36.4425 24.7452 34.0589 25.4956 32.8141C26.2372 31.5694 27.4202 29.9538 27.4202 29.9538C27.4202 29.9538 25.0984 30.1392 23.5711 29.4771C22.5205 29.0269 19.9074 27.2789 19.7838 26.6609C19.6602 26.043 22.7059 26.7227 25.1866 26.4755C27.6762 26.2284 32.3286 23.6152 32.3286 23.6152C32.3286 23.6152 33.8823 24.86 34.3149 26.043C34.7475 27.2259 34.7475 28.8415 35.0565 29.0269Z" fill="#855B52"/>
<path d="M24.3038 58.4246C24.3038 58.4246 23.5887 61.1613 24.0125 64.1452C24.348 66.4847 26.1048 68.7447 26.4137 69.548C26.7227 70.3514 27.2877 72.2229 27.2259 72.8409C27.1641 73.4589 28.0116 73.609 28.197 73.1499C28.4266 72.5937 28.1794 71.8168 28.815 71.9669C29.5212 72.1347 28.815 73.503 29.7243 73.5383C30.6777 73.5825 30.0333 72.2936 30.7219 72.2936C31.4458 72.2936 30.8013 73.7679 31.843 73.7414C32.7965 73.7237 31.9048 72.4348 32.8141 72.4613C33.5557 72.479 32.9377 73.8297 33.9706 73.6796C34.5533 73.6001 33.8735 72.2141 34.6327 72.0464C35.2948 71.9051 34.9417 73.2911 35.7098 72.9998C36.2041 72.8144 36.3719 71.5255 36.1865 70.0336C36.0011 68.5416 35.4449 66.4317 35.1271 64.7279C34.8181 63.0329 34.465 61.2231 34.4473 59.6075C34.4297 57.992 34.4032 56.1028 34.4032 56.1028L24.3038 58.4246Z" fill="#46484A"/>
<path d="M35.7009 44.1494C36.1865 44.1936 38.0227 42.1631 38.8526 40.7153C39.6824 39.2675 41.8806 36.0717 45.1117 35.7009C48.4311 35.3213 50.3733 37.0693 51.159 39.806C51.8829 42.3309 51.2031 45.2353 47.8837 46.8067C44.688 48.3251 43.452 47.716 40.7594 48.5017C39.3293 48.9166 37.1134 50.1614 36.9898 50.3203C36.8662 50.488 37.7226 56.4382 33.0172 59.016C29.0798 61.1701 23.0326 60.3402 19.9251 56.447C16.5174 52.1742 17.153 45.7562 19.6779 42.6487C22.1762 39.5765 25.1866 38.4553 29.6184 39.753C34.5798 41.2097 35.2419 44.1053 35.7009 44.1494Z" fill="#FFF3DD"/>
<path d="M48.7489 41.9954C48.7489 43.814 47.5924 45.4737 45.3148 45.5178C43.3638 45.5531 42.6045 43.9376 42.5427 42.119C42.4633 39.7972 44.123 38.6319 45.7738 38.5966C47.9191 38.5524 48.7489 40.1768 48.7489 41.9954Z" fill="#2E2E2E"/>
<path d="M22.4411 46.586C22.4411 46.586 25.6722 44.8115 26.0783 44.5997C26.4844 44.3878 27.5349 44.0082 28.0999 44.8822C28.6561 45.7562 27.7556 46.533 27.0406 46.842C26.3255 47.151 23.3151 48.9872 23.3151 48.9872C23.3151 48.9872 22.9708 51.2561 23.2798 51.5033C24.1096 52.1654 25.3632 52.5273 26.3873 52.439C27.4113 52.3419 28.2235 51.9094 28.5325 51.8476C28.8415 51.7858 29.7155 51.7505 29.9009 52.3772C30.0863 52.9952 29.6449 53.7191 28.8768 54.0899C27.9587 54.5225 27.0406 54.9815 25.4868 54.7079C24.2774 54.496 23.3151 54.2135 22.7501 53.8339C22.1939 53.4631 21.6024 52.7745 21.6024 52.7745C21.6024 52.7745 20.7638 53.7986 19.9869 53.7721C19.21 53.7368 18.2124 53.2424 18.1859 53.1541C18.1506 53.057 17.1266 52.2537 17.5945 51.3797C18.0624 50.5057 19.1129 51.6887 19.7662 51.7858C20.4195 51.8829 20.8256 51.4415 20.8874 51.2296C20.9491 51.0089 20.9227 48.59 20.9227 48.59C20.9227 48.59 19.5278 46.789 19.21 46.4801C18.901 46.1711 18.0888 45.147 18.9275 44.5202C19.7662 43.8934 20.3224 44.5202 20.5431 44.7056C20.7638 44.891 22.4411 46.586 22.4411 46.586Z" fill="#2E2E2E"/>
</svg>
