<svg width="71" height="71" viewBox="0 0 71 71" fill="none" xmlns="http://www.w3.org/2000/svg">
<path d="M12.05 46.6667C5.84792 49.0314 2 52.3263 2 55.9711C2 63.1669 16.9985 69 35.5 69C54.0017 69 69 63.1669 69 55.9711C69 52.3263 65.152 49.0314 58.95 46.6667M35.5 24.3333H35.5372M57.8333 24.3333C57.8333 39.4593 41.0833 46.6667 35.5 57.8333C29.9167 46.6667 13.1667 39.4593 13.1667 24.3333C13.1667 11.999 23.1656 2 35.5 2C47.8343 2 57.8333 11.999 57.8333 24.3333ZM39.2222 24.3333C39.2222 26.389 37.5558 28.0556 35.5 28.0556C33.4442 28.0556 31.7778 26.389 31.7778 24.3333C31.7778 22.2776 33.4442 20.6111 35.5 20.6111C37.5558 20.6111 39.2222 22.2776 39.2222 24.3333Z" stroke="black" stroke-width="4" stroke-linecap="round" stroke-linejoin="round"/>
</svg>
